<?xml version="1.0" standalone="no"?>
<!DOCTYPE svg PUBLIC "-//W3C//DTD SVG 20010904//EN"
 "http://www.w3.org/TR/2001/REC-SVG-20010904/DTD/svg10.dtd">
<svg version="1.0" xmlns="http://www.w3.org/2000/svg"
 width="128.000000pt" height="128.000000pt" viewBox="0 0 128.000000 128.000000"
 preserveAspectRatio="xMidYMid meet">
<metadata>
Created by potrace 1.14, written by Peter Selinger 2001-2017
</metadata>
<g transform="translate(0.000000,128.000000) scale(0.100000,-0.100000)"
fill="#000000" stroke="none">
<path d="M629 1230 c-29 -43 -40 -51 -84 -61 -27 -6 -65 -17 -82 -25 -20 -8
-35 -9 -38 -3 -9 14 -25 11 -20 -4 7 -15 -32 -41 -40 -27 -4 6 -11 8 -16 4 -6
-3 -18 1 -27 9 -24 20 -103 59 -109 53 -3 -2 -6 -27 -6 -55 -2 -49 5 -63 18
-41 11 19 22 10 30 -22 15 -70 15 -88 0 -88 -8 0 -15 6 -15 13 0 8 -4 7 -10
-3 -8 -13 -10 -12 -10 4 0 20 0 20 -14 0 -14 -18 -16 -17 -49 21 -19 22 -38
37 -41 34 -4 -4 8 -23 27 -43 32 -33 34 -40 15 -37 -5 0 -8 -6 -8 -15 0 -13
-8 -15 -35 -12 -21 2 -36 -1 -39 -8 -3 -7 3 -10 15 -7 22 6 26 -12 4 -21 -8
-3 -15 -11 -15 -17 0 -8 4 -8 15 1 23 19 46 5 41 -26 -3 -15 0 -36 5 -47 8
-15 8 -22 -2 -28 -10 -6 -11 -9 -1 -9 12 0 17 -32 6 -43 -4 -3 -19 0 -34 8
-22 11 -30 12 -33 2 -4 -9 -8 -9 -14 -1 -4 6 -17 10 -28 8 -11 -2 -23 2 -27 9
-4 7 -8 -23 -8 -65 0 -74 1 -78 23 -78 22 -1 22 -1 -3 -15 -21 -12 -22 -14 -6
-15 17 0 17 -1 2 -25 -18 -27 -22 -70 -6 -60 6 4 18 1 27 -7 11 -8 14 -8 10
-1 -5 8 -1 11 12 10 11 0 19 -4 19 -7 -1 -3 2 -13 7 -23 11 -26 3 -29 -43 -13
-56 20 -53 12 7 -18 48 -25 49 -27 66 -96 10 -39 15 -74 11 -77 -3 -4 -18 4
-34 18 l-27 24 29 -32 c25 -27 27 -36 21 -72 -4 -23 -10 -43 -15 -46 -4 -2 -5
-16 -2 -30 3 -19 1 -26 -9 -25 -8 2 -25 1 -39 0 -21 -2 -20 -4 10 -10 34 -7
34 -7 6 -9 -16 0 -27 -4 -23 -7 3 -4 -2 -14 -11 -23 -10 -9 -14 -13 -9 -10 4
3 19 4 33 1 21 -4 23 -7 12 -20 -11 -13 -10 -15 5 -9 9 3 17 2 17 -3 0 -6 7
-10 15 -10 8 0 15 9 15 20 0 11 7 20 16 20 11 0 14 -6 9 -20 -6 -19 -2 -20 59
-20 69 0 99 7 91 21 -3 4 6 31 20 59 14 27 20 50 15 50 -6 0 -8 6 -4 13 4 6
-2 3 -14 -7 -12 -11 -22 -14 -22 -9 0 6 7 16 15 23 8 7 12 16 10 21 -9 13 24
26 55 21 29 -4 30 -6 24 -46 -8 -49 -12 -55 -24 -36 -5 8 -12 12 -15 8 -4 -3
3 -15 15 -26 12 -11 20 -24 17 -29 -3 -4 1 -14 9 -20 11 -11 15 -6 23 25 14
49 14 55 -4 48 -11 -4 -15 1 -15 17 0 14 3 18 8 10 5 -7 8 4 7 27 0 36 -2 40
-26 40 -37 0 -55 60 -27 88 9 9 9 12 0 12 -17 0 -15 27 3 34 8 3 15 15 15 26
0 12 4 19 9 16 11 -7 2 -46 -10 -46 -5 0 -6 -6 -3 -13 9 -24 33 -14 40 15 l6
30 23 -22 c13 -13 24 -17 27 -10 2 7 10 6 23 -4 16 -12 18 -17 7 -27 -17 -18
-15 -36 8 -59 17 -17 33 -20 109 -20 88 0 221 30 221 49 0 5 -24 0 -52 -11
-62 -24 -208 -35 -235 -19 -17 11 -17 11 2 9 14 -2 21 4 23 20 2 15 -2 22 -12
22 -19 0 -20 15 -3 54 l13 29 27 -33 c27 -31 28 -32 34 -12 3 12 9 19 14 16 5
-3 9 7 9 21 0 31 20 24 21 -8 1 -20 2 -20 8 3 7 24 8 24 15 -8 9 -39 28 -38
32 2 3 27 58 124 79 138 5 4 17 8 27 8 28 0 9 -40 -47 -97 -58 -61 -61 -83 -3
-26 l38 37 0 -42 c0 -23 -4 -42 -10 -42 -5 0 -10 -9 -10 -20 0 -15 7 -20 26
-20 14 0 23 4 20 9 -3 5 1 12 10 15 8 3 12 2 9 -4 -3 -6 1 -7 9 -4 20 8 21 30
2 41 -12 7 -12 20 -2 87 14 84 35 116 79 116 27 0 106 -84 114 -121 3 -18 12
-29 22 -29 18 0 42 -45 35 -64 -3 -7 -27 -30 -54 -50 -41 -31 -57 -37 -84 -34
l-35 4 1 -49 c1 -26 5 -50 9 -52 4 -3 7 1 6 8 -1 49 5 77 17 77 16 0 26 -21
26 -55 0 -45 10 -55 55 -55 36 0 42 3 39 18 -4 19 13 46 36 55 11 4 9 6 -6 6
-11 1 -26 7 -33 13 -11 11 -11 9 -1 -11 10 -19 9 -25 -1 -32 -19 -11 -29 2
-35 43 -3 32 0 38 37 64 38 26 43 27 67 13 34 -19 39 -43 14 -65 -19 -16 -19
-17 8 -58 34 -51 63 -132 55 -157 -8 -25 -27 -24 -115 6 -74 25 -106 32 -84
17 6 -4 14 -17 18 -29 7 -22 12 -23 107 -23 l99 0 0 535 c0 294 -2 535 -4 535
-3 0 -12 -23 -21 -50 -10 -30 -27 -57 -41 -67 -13 -8 -24 -21 -24 -28 0 -25
-70 -35 -87 -12 -6 6 -16 35 -23 62 -7 28 -17 54 -21 60 -12 13 -11 55 1 55 6
0 10 14 10 30 0 17 5 30 10 30 6 0 10 9 10 20 0 11 6 20 13 20 8 0 19 11 25
24 6 14 22 26 43 30 44 8 50 -1 17 -28 -30 -23 -31 -42 -4 -94 20 -39 29 -44
51 -28 24 17 45 81 45 139 0 38 -3 47 -17 47 -28 0 -143 -37 -160 -52 -25 -20
-60 -81 -74 -127 -9 -32 -18 -43 -38 -47 -14 -3 -36 -10 -49 -15 -20 -8 -21
-7 -13 9 12 24 17 74 8 90 -5 7 -29 12 -57 12 -38 0 -48 3 -44 14 9 24 -14 28
-27 4 -11 -20 -12 -20 -24 -4 -12 16 -14 14 -20 -13 -7 -34 -20 -38 -48 -17
-13 10 -16 21 -12 42 12 55 14 57 31 40 33 -34 44 -14 19 34 -13 25 -22 30
-54 30 -34 0 -41 -5 -72 -50z m141 -233 c0 -20 -25 1 -28 24 -2 23 -2 23 13 5
8 -11 15 -24 15 -29z m-45 -6 c-3 -6 -18 -11 -33 -11 l-27 1 30 13 c32 14 41
13 30 -3z m-525 -71 c-16 -30 -27 -32 -32 -5 -6 30 10 49 29 34 9 -8 10 -16 3
-29z m275 11 c-6 -5 -21 -11 -35 -15 -21 -5 -20 -3 5 9 35 17 42 18 30 6z
m-315 -49 c0 -8 -1 -13 -3 -11 -1 2 -9 12 -16 22 -12 15 -12 17 3 11 9 -3 16
-13 16 -22z m422 -6 c6 4 9 1 6 -6 -8 -24 -28 -23 -27 2 0 13 3 17 6 10 2 -6
9 -9 15 -6z m87 -33 c9 2 22 6 30 8 7 2 15 -1 18 -7 2 -6 -24 -21 -57 -33 -56
-21 -69 -34 -37 -37 7 0 20 -2 30 -2 9 -1 16 -5 15 -9 -3 -9 5 -13 28 -13 8 0
13 4 10 9 -3 5 1 12 11 15 14 6 15 -2 10 -71 -5 -71 -4 -75 8 -48 l13 30 1
-30 c1 -17 -5 -37 -11 -44 -11 -10 -10 -12 2 -9 8 2 16 -6 18 -18 2 -14 -10
-33 -38 -57 -65 -59 -86 -41 -27 23 l32 35 -37 -34 c-22 -20 -52 -37 -75 -40
-32 -6 -38 -11 -36 -29 2 -12 -2 -22 -7 -22 -8 0 -15 27 -12 51 1 4 -16 9 -38
13 -49 8 -112 69 -129 125 -6 21 -18 44 -26 51 -11 9 -12 16 -3 30 6 10 17 16
23 13 17 -6 26 23 20 66 l-5 36 16 -35 c10 -20 19 -29 21 -22 4 10 9 10 23 -3
22 -20 50 -10 51 19 1 16 2 17 6 4 6 -26 23 -22 23 5 0 18 2 19 10 7 8 -13 10
-12 10 3 0 16 5 18 39 12 l39 -7 -3 34 -4 33 10 -28 c8 -19 17 -27 28 -24z
m231 -36 c0 -27 -22 -87 -32 -87 -4 0 -8 23 -8 50 0 28 4 50 8 50 4 0 6 17 5
38 l-4 37 16 -34 c8 -18 15 -43 15 -54z m-585 63 c-3 -5 -12 -10 -18 -10 -7 0
-6 4 3 10 19 12 23 12 15 0z m-48 -22 c-3 -8 -6 -5 -6 6 -1 11 2 17 5 13 3 -3
4 -12 1 -19z m-74 -11 c15 -23 15 -24 -9 -19 -23 4 -31 21 -17 35 9 10 9 10
26 -16z m982 -197 c5 -34 5 -34 -21 14 -23 44 -24 51 -13 80 l13 31 8 -45 c4
-25 10 -61 13 -80z m-1085 61 c7 -14 6 -27 -5 -47 -12 -23 -15 -25 -21 -11 -3
10 0 25 7 34 10 12 10 15 2 9 -20 -11 -36 3 -22 20 16 19 26 18 39 -5z m-59
-21 c5 0 9 -5 9 -11 0 -8 -5 -8 -15 1 -8 7 -14 20 -14 29 1 13 2 13 6 -1 2
-10 9 -18 14 -18z m105 1 c-4 -5 0 -12 6 -15 11 -5 11 -7 0 -12 -6 -3 -10 -10
-6 -15 3 -5 0 -9 -5 -9 -6 0 -11 -5 -11 -11 0 -5 4 -8 9 -4 5 3 12 2 15 -3 6
-10 -51 -9 -60 1 -4 4 -2 7 5 7 7 0 10 4 7 9 -3 5 4 20 15 35 19 25 37 37 25
17z m710 -159 c-14 -13 -17 11 -9 65 l8 58 3 -59 c2 -32 1 -61 -2 -64z m-688
17 c0 -47 -1 -49 -15 -30 -8 12 -18 21 -24 21 -12 0 -12 -37 1 -45 17 -11 32
-45 19 -45 -6 0 -13 9 -16 20 -3 11 -9 17 -14 14 -8 -5 -13 12 -12 44 1 6 -3
12 -8 12 -5 0 -9 8 -9 17 0 15 -1 15 -13 1 -6 -9 -23 -19 -37 -23 -23 -7 -24
-7 -10 11 30 38 35 41 55 36 11 -3 24 -11 28 -19 7 -11 13 -8 28 12 11 14 22
25 24 25 2 0 4 -23 3 -51z m1022 10 c14 -26 20 -55 18 -82 -3 -40 -4 -38 -24
41 -12 45 -20 82 -18 82 2 0 13 -18 24 -41z m-431 -45 c-14 -52 -25 -62 -46
-41 -16 16 -15 19 17 52 18 19 35 33 37 32 1 -2 -2 -21 -8 -43z m-129 -19 c0
-8 -8 -15 -17 -14 -11 0 -13 3 -5 6 6 2 10 9 6 14 -3 5 0 9 5 9 6 0 11 -7 11
-15z m-96 -70 c-6 -36 -7 -36 -24 -18 -10 10 -21 29 -25 43 -7 23 -7 24 10 10
11 -9 16 -10 11 -2 -12 20 4 36 21 19 10 -10 12 -25 7 -52z m116 42 c0 -7 -9
-18 -20 -25 -23 -14 -27 -32 -7 -32 15 0 16 -35 2 -47 -4 -5 -5 -2 -1 5 4 6 3
12 -2 12 -9 0 -32 52 -32 72 0 5 10 13 23 18 31 12 37 12 37 -3z m-500 -99 c0
-36 -4 -35 -14 5 -4 16 -2 27 4 27 5 0 10 -14 10 -32z m370 7 c7 -9 8 -15 2
-15 -5 0 -12 7 -16 15 -3 8 -4 15 -2 15 2 0 9 -7 16 -15z m-310 -45 c0 -38 -4
-50 -15 -50 -11 0 -14 7 -10 25 3 14 7 36 10 50 8 40 15 29 15 -25z m0 -69 c0
-5 -7 -11 -15 -15 -9 -3 -15 0 -15 9 0 8 7 15 15 15 8 0 15 -4 15 -9z m865
-39 c2 -18 -1 -32 -6 -32 -5 0 -9 9 -9 19 0 11 -3 27 -7 37 -4 11 -2 15 7 12
7 -2 14 -18 15 -36z m-869 -4 c-3 -13 -6 -30 -6 -38 -1 -8 -6 -4 -11 9 -11 28
-5 51 12 51 7 0 9 -9 5 -22z m-29 -84 c-10 -10 -38 10 -33 23 3 8 6 22 7 31 0
9 7 2 15 -17 8 -18 13 -35 11 -37z m240 -66 c-3 -7 -5 -2 -5 12 0 14 2 19 5
13 2 -7 2 -19 0 -25z"/>
<path d="M413 728 c-18 -6 -33 -15 -33 -19 0 -8 31 -14 53 -10 4 0 7 -3 7 -9
0 -16 37 -11 44 6 17 44 -3 53 -71 32z"/>
<path d="M970 1096 c0 -2 8 -10 18 -17 15 -13 16 -12 3 4 -13 16 -21 21 -21
13z"/>
<path d="M218 1033 c5 -21 7 -23 10 -9 2 10 0 22 -6 28 -6 6 -7 0 -4 -19z"/>
<path d="M1171 1000 c14 -31 19 -36 19 -24 0 6 -7 19 -16 30 -14 18 -14 18 -3
-6z"/>
<path d="M50 866 c0 -8 -8 -17 -17 -19 -12 -3 -8 -5 9 -6 21 -1 26 3 25 19 -1
23 -17 28 -17 6z"/>
<path d="M115 870 c3 -5 0 -10 -7 -10 -9 0 -9 -3 2 -10 8 -5 10 -10 4 -10 -7
0 -14 -7 -18 -15 -3 -9 0 -15 9 -15 8 0 14 3 14 8 -1 4 -1 9 1 12 8 22 8 50
-1 50 -5 0 -7 -4 -4 -10z"/>
<path d="M38 813 c7 -3 16 -2 19 1 4 3 -2 6 -13 5 -11 0 -14 -3 -6 -6z"/>
<path d="M15 350 c10 -11 20 -20 23 -20 3 0 -3 9 -13 20 -10 11 -20 20 -23 20
-3 0 3 -9 13 -20z"/>
<path d="M927 317 c-3 -9 1 -21 9 -27 11 -10 14 -10 14 1 0 8 -4 20 -9 27 -7
11 -9 11 -14 -1z"/>
<path d="M890 286 c0 -2 8 -10 18 -17 15 -13 16 -12 3 4 -13 16 -21 21 -21 13z"/>
<path d="M870 276 c0 -2 8 -10 18 -17 15 -13 16 -12 3 4 -13 16 -21 21 -21 13z"/>
<path d="M837 246 c-36 -28 -215 -51 -280 -37 -32 8 -39 6 -48 -11 -6 -12 -8
-39 -4 -65 5 -35 3 -49 -11 -64 -9 -10 -21 -16 -25 -13 -5 3 -6 -3 -2 -12 5
-14 3 -16 -12 -11 -15 6 -16 5 -6 -7 10 -11 8 -15 -6 -19 -10 -3 5 -5 32 -4
28 0 53 5 56 9 3 5 18 4 33 -2 16 -6 113 -10 228 -10 179 0 199 2 194 16 -16
42 -18 64 -5 65 8 0 -4 7 -26 15 -50 18 -65 38 -65 85 0 20 -8 46 -17 58 -16
18 -20 19 -36 7z m-7 -67 c-29 -69 -126 -107 -236 -93 -52 6 -57 9 -70 41 -8
19 -12 43 -9 54 6 17 14 18 93 13 66 -4 104 -1 157 13 39 10 72 14 74 10 1 -4
-3 -21 -9 -38z"/>
</g>
</svg>
